<mxfile host="app.diagrams.net" modified="2022-10-10T13:53:55.761Z" agent="5.0 (Windows NT 6.1; WOW64) AppleWebKit/537.36 (KHTML, like Gecko) Chrome/86.0.4240.198 Safari/537.36" etag="_XcTEGVrI5weKFTgR7RD" version="20.4.0" type="github">
  <diagram id="nHjyefR00ipD4gsYa4OQ" name="第 1 页">
    <mxGraphModel dx="2031" dy="2226" grid="1" gridSize="10" guides="1" tooltips="1" connect="1" arrows="1" fold="1" page="1" pageScale="1" pageWidth="827" pageHeight="1169" math="0" shadow="0">
      <root>
        <mxCell id="0" />
        <mxCell id="1" parent="0" />
        <mxCell id="fIoEv5E2U9dEB1Ysbp1T-43" style="edgeStyle=orthogonalEdgeStyle;rounded=0;orthogonalLoop=1;jettySize=auto;html=1;exitX=0;exitY=0.25;exitDx=0;exitDy=0;entryX=0.49;entryY=1.056;entryDx=0;entryDy=0;entryPerimeter=0;fontSize=18;" edge="1" parent="1" source="fIoEv5E2U9dEB1Ysbp1T-11" target="fIoEv5E2U9dEB1Ysbp1T-29">
          <mxGeometry relative="1" as="geometry" />
        </mxCell>
        <mxCell id="fIoEv5E2U9dEB1Ysbp1T-11" value="" style="rounded=0;whiteSpace=wrap;html=1;fillColor=none;" vertex="1" parent="1">
          <mxGeometry x="550" y="-80" width="360" height="540" as="geometry" />
        </mxCell>
        <mxCell id="fIoEv5E2U9dEB1Ysbp1T-15" value="" style="group" vertex="1" connectable="0" parent="1">
          <mxGeometry x="74" y="30" width="180" height="320" as="geometry" />
        </mxCell>
        <mxCell id="fIoEv5E2U9dEB1Ysbp1T-16" value="" style="rounded=0;whiteSpace=wrap;html=1;" vertex="1" parent="fIoEv5E2U9dEB1Ysbp1T-15">
          <mxGeometry width="180" height="320" as="geometry" />
        </mxCell>
        <mxCell id="fIoEv5E2U9dEB1Ysbp1T-17" value="" style="rounded=0;whiteSpace=wrap;html=1;fillColor=#000000;fillStyle=hatch;gradientColor=none;strokeColor=#1A1A1A;" vertex="1" parent="fIoEv5E2U9dEB1Ysbp1T-15">
          <mxGeometry x="7.5" y="7.5" width="165" height="305" as="geometry" />
        </mxCell>
        <mxCell id="fIoEv5E2U9dEB1Ysbp1T-4" value="" style="endArrow=block;html=1;rounded=0;strokeWidth=2;endFill=1;" edge="1" parent="1">
          <mxGeometry width="50" height="50" relative="1" as="geometry">
            <mxPoint x="280" y="189.47" as="sourcePoint" />
            <mxPoint x="520" y="189.47" as="targetPoint" />
          </mxGeometry>
        </mxCell>
        <mxCell id="fIoEv5E2U9dEB1Ysbp1T-36" style="edgeStyle=orthogonalEdgeStyle;rounded=0;orthogonalLoop=1;jettySize=auto;html=1;exitX=0.25;exitY=0;exitDx=0;exitDy=0;entryX=0.492;entryY=1.074;entryDx=0;entryDy=0;entryPerimeter=0;fontSize=18;" edge="1" parent="1" source="fIoEv5E2U9dEB1Ysbp1T-18" target="fIoEv5E2U9dEB1Ysbp1T-33">
          <mxGeometry relative="1" as="geometry" />
        </mxCell>
        <mxCell id="fIoEv5E2U9dEB1Ysbp1T-18" value="" style="rounded=0;whiteSpace=wrap;html=1;fillColor=none;" vertex="1" parent="1">
          <mxGeometry x="555" y="89" width="350" height="202" as="geometry" />
        </mxCell>
        <mxCell id="fIoEv5E2U9dEB1Ysbp1T-44" style="edgeStyle=orthogonalEdgeStyle;rounded=0;orthogonalLoop=1;jettySize=auto;html=1;exitX=0.75;exitY=0;exitDx=0;exitDy=0;entryX=-0.001;entryY=0.517;entryDx=0;entryDy=0;entryPerimeter=0;fontSize=18;" edge="1" parent="1" source="fIoEv5E2U9dEB1Ysbp1T-19" target="fIoEv5E2U9dEB1Ysbp1T-37">
          <mxGeometry relative="1" as="geometry" />
        </mxCell>
        <mxCell id="fIoEv5E2U9dEB1Ysbp1T-19" value="" style="rounded=0;whiteSpace=wrap;html=1;fillColor=#000000;fillStyle=hatch;" vertex="1" parent="1">
          <mxGeometry x="673.175" y="89" width="113.65" height="202" as="geometry" />
        </mxCell>
        <mxCell id="fIoEv5E2U9dEB1Ysbp1T-20" value="" style="endArrow=classic;startArrow=classic;html=1;rounded=0;" edge="1" parent="1">
          <mxGeometry width="50" height="50" relative="1" as="geometry">
            <mxPoint x="550" y="480" as="sourcePoint" />
            <mxPoint x="910" y="480" as="targetPoint" />
          </mxGeometry>
        </mxCell>
        <mxCell id="fIoEv5E2U9dEB1Ysbp1T-21" value="" style="endArrow=classic;startArrow=classic;html=1;rounded=0;" edge="1" parent="1">
          <mxGeometry width="50" height="50" relative="1" as="geometry">
            <mxPoint x="932" y="460" as="sourcePoint" />
            <mxPoint x="932" y="-80" as="targetPoint" />
          </mxGeometry>
        </mxCell>
        <mxCell id="fIoEv5E2U9dEB1Ysbp1T-22" value="W" style="text;html=1;align=center;verticalAlign=middle;resizable=0;points=[];autosize=1;strokeColor=none;fillColor=none;fontStyle=1;fontSize=18;" vertex="1" parent="1">
          <mxGeometry x="710" y="490" width="40" height="30" as="geometry" />
        </mxCell>
        <mxCell id="fIoEv5E2U9dEB1Ysbp1T-23" value="H" style="text;html=1;align=center;verticalAlign=middle;resizable=0;points=[];autosize=1;strokeColor=none;fillColor=none;fontStyle=1;fontSize=18;" vertex="1" parent="1">
          <mxGeometry x="951" y="175" width="40" height="30" as="geometry" />
        </mxCell>
        <mxCell id="fIoEv5E2U9dEB1Ysbp1T-24" style="edgeStyle=orthogonalEdgeStyle;rounded=0;orthogonalLoop=1;jettySize=auto;html=1;exitX=0;exitY=0;exitDx=0;exitDy=0;fontSize=18;entryX=0.239;entryY=1.084;entryDx=0;entryDy=0;entryPerimeter=0;" edge="1" parent="1" source="fIoEv5E2U9dEB1Ysbp1T-16" target="fIoEv5E2U9dEB1Ysbp1T-25">
          <mxGeometry relative="1" as="geometry">
            <mxPoint x="100" y="-100" as="targetPoint" />
          </mxGeometry>
        </mxCell>
        <mxCell id="fIoEv5E2U9dEB1Ysbp1T-25" value="Source端移动设备屏幕" style="text;html=1;align=center;verticalAlign=middle;resizable=0;points=[];autosize=1;strokeColor=default;fillColor=none;fontSize=15;" vertex="1" parent="1">
          <mxGeometry x="30" y="-118" width="180" height="30" as="geometry" />
        </mxCell>
        <mxCell id="fIoEv5E2U9dEB1Ysbp1T-26" style="edgeStyle=orthogonalEdgeStyle;rounded=0;orthogonalLoop=1;jettySize=auto;html=1;exitX=0.75;exitY=0;exitDx=0;exitDy=0;fontSize=18;entryX=0.233;entryY=1.059;entryDx=0;entryDy=0;entryPerimeter=0;" edge="1" parent="1" source="fIoEv5E2U9dEB1Ysbp1T-17" target="fIoEv5E2U9dEB1Ysbp1T-27">
          <mxGeometry relative="1" as="geometry">
            <mxPoint x="205.82352941176487" y="-20" as="targetPoint" />
          </mxGeometry>
        </mxCell>
        <mxCell id="fIoEv5E2U9dEB1Ysbp1T-27" value="Source端移动设备屏幕画面" style="text;html=1;align=center;verticalAlign=middle;resizable=0;points=[];autosize=1;strokeColor=default;fillColor=none;fontSize=15;" vertex="1" parent="1">
          <mxGeometry x="157" y="-59" width="210" height="30" as="geometry" />
        </mxCell>
        <mxCell id="fIoEv5E2U9dEB1Ysbp1T-29" value="Sink端屏幕" style="text;html=1;align=center;verticalAlign=middle;resizable=0;points=[];autosize=1;strokeColor=default;fillColor=none;fontSize=15;" vertex="1" parent="1">
          <mxGeometry x="414" y="-149" width="100" height="30" as="geometry" />
        </mxCell>
        <mxCell id="fIoEv5E2U9dEB1Ysbp1T-33" value="Sink端收到的Miracast图像" style="text;html=1;align=center;verticalAlign=middle;resizable=0;points=[];autosize=1;strokeColor=default;fillColor=none;fontSize=15;" vertex="1" parent="1">
          <mxGeometry x="544" y="-149" width="200" height="30" as="geometry" />
        </mxCell>
        <mxCell id="fIoEv5E2U9dEB1Ysbp1T-37" value="Sink端收到的Miracast图像中的有效内容区域" style="text;html=1;align=center;verticalAlign=middle;resizable=0;points=[];autosize=1;strokeColor=default;fillColor=none;fontSize=15;" vertex="1" parent="1">
          <mxGeometry x="786.83" y="-149" width="320" height="30" as="geometry" />
        </mxCell>
      </root>
    </mxGraphModel>
  </diagram>
</mxfile>
